<?xml version="1.0" encoding="UTF-8" standalone="no"?><!-- Generator: Gravit.io --><svg xmlns="http://www.w3.org/2000/svg" xmlns:xlink="http://www.w3.org/1999/xlink" style="isolation:isolate" viewBox="0 0 520 520" width="520pt" height="520pt"><defs><clipPath id="_clipPath_3eFlNxAKUitverhRN1TfB6v9QH6lREml"><rect width="520" height="520"/></clipPath></defs><g clip-path="url(#_clipPath_3eFlNxAKUitverhRN1TfB6v9QH6lREml)"><g><g/></g><g><g><g/></g></g><g><g/><g><path d=" M 418.279 367.929 L 418.279 173.134 L 105.627 186.541 L 105.627 381.336 C 105.626 385.8 107.835 390.263 112.253 392.814 L 236.107 464.321 C 244.916 469.407 255.768 469.407 264.577 464.321 L 411.653 379.407 C 416.071 376.857 418.28 372.393 418.279 367.929 L 418.279 367.929 Z " fill="rgb(242,149,68)"/><path d=" M 434.17 177.688 C 431.74 176.285 431.731 172.781 434.153 171.365 L 483.875 153.687 C 492.548 148.68 492.744 136.231 484.233 130.953 L 365.202 57.139 C 356.286 51.61 345.051 51.433 335.965 56.679 L 285.947 74.519 C 279.12 78.509 270.678 78.531 263.83 74.577 L 213.842 56.283 C 203.317 50.206 190.302 50.411 179.973 56.816 L 42.087 142.323 C 32.228 148.437 32.455 162.858 42.502 168.659 L 86.398 183.436 C 88.833 184.841 88.836 188.354 86.405 189.765 L 35.125 210.025 C 26.292 215.125 26.292 227.874 35.125 232.974 L 158.984 304.484 C 167.792 309.569 178.644 309.569 187.452 304.484 L 234.683 286.574 C 241.501 282.618 249.914 282.609 256.741 286.55 L 307.369 304.636 C 317.572 310.527 330.143 310.527 340.347 304.636 L 483.827 221.798 C 494.057 215.889 494.057 201.12 483.825 195.213 L 434.17 177.688 Z " fill="rgb(240,215,158)"/><path d=" M 112.253 175.065 L 259.329 90.151 C 268.138 85.065 278.99 85.065 287.799 90.151 L 411.653 161.658 C 420.488 166.759 420.488 179.51 411.653 184.611 L 264.577 269.525 C 255.768 274.611 244.916 274.611 236.107 269.525 L 112.253 198.018 C 103.419 192.917 103.419 180.166 112.253 175.065 L 112.253 175.065 Z " fill="rgb(251,162,84)"/><path d=" M 147.816 402.534 L 120.029 386.491 L 120.029 379.733 L 147.816 395.776 L 147.816 402.534 Z " fill="rgb(115,56,4)"/><path d=" M 137.641 364.633 L 136.096 367.31 L 133.762 365.962 L 127.148 377.417 L 123.773 375.469 L 130.387 364.014 L 128.751 363.069 L 129.725 361.382 L 131.947 361.312 L 132.563 360.246 L 132.563 360.246 Q 133.925 357.886 135.564 357.302 L 135.564 357.302 L 135.564 357.302 Q 137.204 356.718 139.373 357.971 L 139.373 357.971 L 139.373 357.971 Q 140.744 358.762 141.594 360.014 L 141.594 360.014 L 139.219 362.076 L 139.219 362.076 Q 138.76 361.406 138.101 361.025 L 138.101 361.025 L 138.101 361.025 Q 137.517 360.688 136.987 360.991 L 136.987 360.991 L 136.987 360.991 Q 136.457 361.294 135.908 362.245 L 135.908 362.245 L 135.307 363.285 L 137.641 364.633 L 137.641 364.633 Z  M 145.526 378.573 L 145.526 378.573 L 145.526 378.573 Q 143.52 382.049 140.931 383.134 L 140.931 383.134 L 140.931 383.134 Q 138.343 384.219 135.78 382.739 L 135.78 382.739 L 135.78 382.739 Q 134.156 381.802 133.426 380.196 L 133.426 380.196 L 133.426 380.196 Q 132.695 378.59 132.986 376.534 L 132.986 376.534 L 132.986 376.534 Q 133.277 374.478 134.566 372.245 L 134.566 372.245 L 134.566 372.245 Q 136.551 368.807 139.127 367.715 L 139.127 367.715 L 139.127 367.715 Q 141.702 366.622 144.29 368.116 L 144.29 368.116 L 144.29 368.116 Q 146.789 369.559 147.128 372.385 L 147.128 372.385 L 147.128 372.385 Q 147.467 375.211 145.526 378.573 Z  M 138.016 374.237 L 138.016 374.237 L 138.016 374.237 Q 136.742 376.444 136.572 377.852 L 136.572 377.852 L 136.572 377.852 Q 136.402 379.259 137.468 379.874 L 137.468 379.874 L 137.468 379.874 Q 139.498 381.046 142.076 376.581 L 142.076 376.581 L 142.076 376.581 Q 143.358 374.361 143.503 372.981 L 143.503 372.981 L 143.503 372.981 Q 143.648 371.602 142.595 370.994 L 142.595 370.994 L 142.595 370.994 Q 141.529 370.379 140.414 371.198 L 140.414 371.198 L 140.414 371.198 Q 139.298 372.017 138.016 374.237 Z  M 153.778 387.278 L 153.778 387.278 L 153.778 387.278 Q 152.585 389.346 150.703 389.807 L 150.703 389.807 L 150.703 389.807 Q 148.821 390.269 146.462 388.906 L 146.462 388.906 L 146.462 388.906 Q 144.368 387.698 143.474 386.082 L 143.474 386.082 L 145.166 383.152 L 145.166 383.152 Q 145.586 384.037 146.335 384.892 L 146.335 384.892 L 146.335 384.892 Q 147.084 385.748 147.795 386.158 L 147.795 386.158 L 147.795 386.158 Q 148.581 386.612 149.217 386.463 L 149.217 386.463 L 149.217 386.463 Q 149.853 386.314 150.219 385.68 L 150.219 385.68 L 150.219 385.68 Q 150.592 385.033 150.439 384.302 L 150.439 384.302 L 150.439 384.302 Q 150.286 383.571 149.535 382.207 L 149.535 382.207 L 149.535 382.207 Q 148.527 380.407 148.458 378.988 L 148.458 378.988 L 148.458 378.988 Q 148.389 377.57 149.202 376.162 L 149.202 376.162 L 149.202 376.162 Q 150.242 374.361 152.087 374.022 L 152.087 374.022 L 152.087 374.022 Q 153.932 373.683 156.088 374.928 L 156.088 374.928 L 156.088 374.928 Q 157.966 376.012 159.056 377.961 L 159.056 377.961 L 156.554 379.747 L 156.554 379.747 Q 155.621 378.227 154.594 377.634 L 154.594 377.634 L 154.594 377.634 Q 153.947 377.26 153.425 377.416 L 153.425 377.416 L 153.425 377.416 Q 152.904 377.572 152.618 378.067 L 152.618 378.067 L 152.618 378.067 Q 152.289 378.638 152.432 379.312 L 152.432 379.312 L 152.432 379.312 Q 152.575 379.987 153.285 381.277 L 153.285 381.277 L 153.285 381.277 Q 154.143 382.838 154.354 383.703 L 154.354 383.703 L 154.354 383.703 Q 154.564 384.569 154.446 385.448 L 154.446 385.448 L 154.446 385.448 Q 154.328 386.327 153.778 387.278 Z  M 163.496 392.889 L 163.496 392.889 L 163.496 392.889 Q 162.302 394.956 160.42 395.418 L 160.42 395.418 L 160.42 395.418 Q 158.539 395.879 156.179 394.517 L 156.179 394.517 L 156.179 394.517 Q 154.086 393.308 153.192 391.693 L 153.192 391.693 L 154.884 388.762 L 154.884 388.762 Q 155.303 389.647 156.052 390.503 L 156.052 390.503 L 156.052 390.503 Q 156.802 391.358 157.512 391.768 L 157.512 391.768 L 157.512 391.768 Q 158.299 392.222 158.934 392.073 L 158.934 392.073 L 158.934 392.073 Q 159.57 391.925 159.936 391.29 L 159.936 391.29 L 159.936 391.29 Q 160.31 390.643 160.157 389.912 L 160.157 389.912 L 160.157 389.912 Q 160.004 389.181 159.252 387.817 L 159.252 387.817 L 159.252 387.817 Q 158.245 386.017 158.175 384.599 L 158.175 384.599 L 158.175 384.599 Q 158.106 383.18 158.919 381.772 L 158.919 381.772 L 158.919 381.772 Q 159.959 379.971 161.804 379.632 L 161.804 379.632 L 161.804 379.632 Q 163.649 379.293 165.806 380.538 L 165.806 380.538 L 165.806 380.538 Q 167.683 381.622 168.774 383.571 L 168.774 383.571 L 166.271 385.357 L 166.271 385.357 Q 165.339 383.838 164.311 383.244 L 164.311 383.244 L 164.311 383.244 Q 163.664 382.871 163.143 383.027 L 163.143 383.027 L 163.143 383.027 Q 162.621 383.182 162.336 383.677 L 162.336 383.677 L 162.336 383.677 Q 162.006 384.248 162.149 384.923 L 162.149 384.923 L 162.149 384.923 Q 162.293 385.597 163.003 386.887 L 163.003 386.887 L 163.003 386.887 Q 163.861 388.448 164.071 389.314 L 164.071 389.314 L 164.071 389.314 Q 164.282 390.179 164.163 391.058 L 164.163 391.058 L 164.163 391.058 Q 164.045 391.937 163.496 392.889 Z  M 178.01 380.464 L 166.614 400.203 L 163.239 398.255 L 174.636 378.515 L 178.01 380.464 L 178.01 380.464 Z  M 181.002 389.667 L 172.843 403.799 L 169.468 401.851 L 177.627 387.719 L 181.002 389.667 L 181.002 389.667 Z  M 179.619 383.947 L 179.619 383.947 L 179.619 383.947 Q 180.103 383.109 180.873 382.903 L 180.873 382.903 L 180.873 382.903 Q 181.643 382.697 182.519 383.202 L 182.519 383.202 L 182.519 383.202 Q 183.343 383.678 183.556 384.452 L 183.556 384.452 L 183.556 384.452 Q 183.769 385.226 183.285 386.063 L 183.285 386.063 L 183.285 386.063 Q 182.787 386.926 182.005 387.109 L 182.005 387.109 L 182.005 387.109 Q 181.223 387.292 180.424 386.83 L 180.424 386.83 L 180.424 386.83 Q 179.587 386.347 179.354 385.578 L 179.354 385.578 L 179.354 385.578 Q 179.121 384.809 179.619 383.947 Z  M 190.174 394.962 L 188.628 397.639 L 186.294 396.292 L 179.68 407.747 L 176.306 405.799 L 182.92 394.343 L 181.283 393.398 L 182.257 391.711 L 184.48 391.641 L 185.095 390.576 L 185.095 390.576 Q 186.457 388.216 188.097 387.632 L 188.097 387.632 L 188.097 387.632 Q 189.737 387.048 191.906 388.3 L 191.906 388.3 L 191.906 388.3 Q 193.276 389.091 194.126 390.343 L 194.126 390.343 L 191.751 392.406 L 191.751 392.406 Q 191.293 391.735 190.633 391.354 L 190.633 391.354 L 190.633 391.354 Q 190.05 391.017 189.519 391.32 L 189.519 391.32 L 189.519 391.32 Q 188.989 391.623 188.44 392.575 L 188.44 392.575 L 187.839 393.615 L 190.174 394.962 L 190.174 394.962 Z  M 188.566 413.215 L 188.566 413.215 L 188.566 413.215 Q 185.915 411.685 185.474 408.918 L 185.474 408.918 L 185.474 408.918 Q 185.033 406.152 187.025 402.701 L 187.025 402.701 L 187.025 402.701 Q 189.046 399.2 191.565 398.032 L 191.565 398.032 L 191.565 398.032 Q 194.083 396.864 196.556 398.292 L 196.556 398.292 L 196.556 398.292 Q 198.865 399.625 199.227 402.075 L 199.227 402.075 L 199.227 402.075 Q 199.588 404.525 197.838 407.557 L 197.838 407.557 L 196.798 409.358 L 190.011 405.44 L 190.011 405.44 Q 188.957 407.352 189.162 408.697 L 189.162 408.697 L 189.162 408.697 Q 189.367 410.041 190.661 410.788 L 190.661 410.788 L 190.661 410.788 Q 192.31 411.74 194.629 411.709 L 194.629 411.709 L 193.025 414.487 L 193.025 414.487 Q 190.837 414.527 188.566 413.215 Z  M 195.029 400.878 L 195.029 400.878 L 195.029 400.878 Q 194.306 400.461 193.394 400.957 L 193.394 400.957 L 193.394 400.957 Q 192.481 401.454 191.475 403.021 L 191.475 403.021 L 194.9 404.998 L 194.9 404.998 Q 195.768 403.436 195.786 402.381 L 195.786 402.381 L 195.786 402.381 Q 195.803 401.325 195.029 400.878 Z " fill="rgb(115,56,4)"/><path d=" M 290.006 254.723 L 215.276 211.577 C 212.411 209.923 211.429 206.26 213.083 203.395 L 272.981 99.649 C 273.679 98.436 274.779 97.505 276.091 97.018 L 319.997 80.869 C 321.669 80.253 323.528 80.414 325.069 81.307 L 392.504 120.241 C 395.369 121.895 396.351 125.558 394.697 128.423 L 337.8 226.971 L 290.006 254.723 L 290.006 254.723 Z " fill="rgb(242,242,242)"/><path d=" M 290.006 254.723 L 308.647 265.486 C 311.512 267.14 315.176 266.158 316.83 263.293 L 337.8 226.971 L 290.006 254.723 L 290.006 254.723 Z " fill="none"/><path d=" M 335.444 87.297 L 311.485 128.796 C 309.831 131.66 306.168 132.642 303.303 130.988 L 266.992 110.024 L 272.981 99.649 C 273.679 98.436 274.779 97.505 276.091 97.018 L 319.997 80.869 C 321.669 80.253 323.528 80.414 325.069 81.307 L 335.444 87.297 Z " fill="rgb(240,233,192)"/><path d=" M 294.624 231.383 L 293.028 234.246 L 287.152 223.699 L 288.259 221.715 L 300.305 221.194 L 298.709 224.056 L 290.479 224.253 L 294.624 231.383 L 294.624 231.383 Z  M 295.738 235.756 L 297.333 232.894 L 305.616 232.693 L 301.418 225.567 L 303.014 222.705 L 308.904 233.226 L 307.798 235.21 L 295.738 235.756 L 295.738 235.756 Z " fill="rgb(145,145,145)"/><path d=" M 209.51 254.446 L 188.316 265.627 C 185.52 267.102 182.058 266.031 180.582 263.235 L 160.916 225.955 L 209.51 254.446 L 209.51 254.446 Z " fill="none"/><path d=" M 209.51 254.446 L 279.446 217.552 C 282.242 216.077 283.313 212.615 281.838 209.819 L 212.397 78.187 C 210.922 75.391 207.46 74.32 204.664 75.795 L 138.848 110.515 C 137.341 111.307 136.264 112.729 135.911 114.394 L 126.622 158.125 C 126.348 159.434 126.54 160.798 127.167 161.979 L 160.916 225.955 L 209.51 254.446 L 209.51 254.446 Z " fill="rgb(255,255,255)"/><path d=" M 148.973 105.174 L 170.34 145.676 C 171.815 148.472 170.744 151.934 167.948 153.409 L 132.508 172.105 L 127.167 161.979 C 126.54 160.798 126.348 159.434 126.622 158.125 L 135.911 114.394 C 136.264 112.729 137.341 111.307 138.848 110.515 L 148.973 105.174 Z " fill="rgb(240,233,192)"/><path d=" M 196.322 234.334 L 197.819 237.084 L 186.3 236.445 L 185.262 234.538 L 190.992 224.542 L 192.489 227.292 L 188.446 234.041 L 196.322 234.334 L 196.322 234.334 Z  M 200.423 235.667 L 198.926 232.916 L 202.993 226.123 L 195.093 225.875 L 193.596 223.125 L 205.102 223.739 L 206.14 225.646 L 200.423 235.667 L 200.423 235.667 Z " fill="rgb(91,91,91)"/></g></g></g></svg>